# BioForge 3D Scene Export
# Atoms: 5, Bonds: 4, Triangles: 528
v 3.2406 1.5760 0.4275 0.150 0.350 0.900
v 3.6086 1.5760 0.4275 0.150 0.350 0.900
v 3.2406 0.9806 0.4275 0.150 0.350 0.900
v 3.6086 0.9806 0.4275 0.150 0.350 0.900
v 3.4246 1.0943 0.7252 0.150 0.350 0.900
v 3.4246 1.4623 0.7252 0.150 0.350 0.900
v 3.4246 1.0943 0.1298 0.150 0.350 0.900
v 3.4246 1.4623 0.1298 0.150 0.350 0.900
v 3.7223 1.2783 0.2435 0.150 0.350 0.900
v 3.7223 1.2783 0.6115 0.150 0.350 0.900
v 3.1269 1.2783 0.2435 0.150 0.350 0.900
v 3.1269 1.2783 0.6115 0.150 0.350 0.900
v 3.1415 1.4533 0.5356 0.150 0.350 0.900
v 3.2496 1.3864 0.7106 0.150 0.350 0.900
v 3.3165 1.5614 0.6025 0.150 0.350 0.900
v 3.5328 1.5614 0.6025 0.150 0.350 0.900
v 3.4246 1.6283 0.4275 0.150 0.350 0.900
v 3.5328 1.5614 0.2525 0.150 0.350 0.900
v 3.3165 1.5614 0.2525 0.150 0.350 0.900
v 3.2496 1.3864 0.1443 0.150 0.350 0.900
v 3.1415 1.4533 0.3193 0.150 0.350 0.900
v 3.0746 1.2783 0.4275 0.150 0.350 0.900
v 3.5996 1.3864 0.7106 0.150 0.350 0.900
v 3.7078 1.4533 0.5356 0.150 0.350 0.900
v 3.2496 1.1701 0.7106 0.150 0.350 0.900
v 3.4246 1.2783 0.7775 0.150 0.350 0.900
v 3.1415 1.1033 0.3193 0.150 0.350 0.900
v 3.1415 1.1033 0.5356 0.150 0.350 0.900
v 3.4246 1.2783 0.0775 0.150 0.350 0.900
v 3.2496 1.1701 0.1443 0.150 0.350 0.900
v 3.7078 1.4533 0.3193 0.150 0.350 0.900
v 3.5996 1.3864 0.1443 0.150 0.350 0.900
v 3.7078 1.1033 0.5356 0.150 0.350 0.900
v 3.5996 1.1701 0.7106 0.150 0.350 0.900
v 3.5328 0.9951 0.6025 0.150 0.350 0.900
v 3.3165 0.9951 0.6025 0.150 0.350 0.900
v 3.4246 0.9283 0.4275 0.150 0.350 0.900
v 3.3165 0.9951 0.2525 0.150 0.350 0.900
v 3.5328 0.9951 0.2525 0.150 0.350 0.900
v 3.5996 1.1701 0.1443 0.150 0.350 0.900
v 3.7078 1.1033 0.3193 0.150 0.350 0.900
v 3.7746 1.2783 0.4275 0.150 0.350 0.900
v 1.9554 2.2927 0.4740 0.350 0.350 0.350
v 2.3234 2.2927 0.4740 0.350 0.350 0.350
v 1.9554 1.6972 0.4740 0.350 0.350 0.350
v 2.3234 1.6972 0.4740 0.350 0.350 0.350
v 2.1394 1.8110 0.7718 0.350 0.350 0.350
v 2.1394 2.1790 0.7718 0.350 0.350 0.350
v 2.1394 1.8110 0.1763 0.350 0.350 0.350
v 2.1394 2.1790 0.1763 0.350 0.350 0.350
v 2.4371 1.9950 0.2900 0.350 0.350 0.350
v 2.4371 1.9950 0.6580 0.350 0.350 0.350
v 1.8417 1.9950 0.2900 0.350 0.350 0.350
v 1.8417 1.9950 0.6580 0.350 0.350 0.350
v 1.8562 2.1700 0.5822 0.350 0.350 0.350
v 1.9644 2.1031 0.7572 0.350 0.350 0.350
v 2.0312 2.2781 0.6490 0.350 0.350 0.350
v 2.2476 2.2781 0.6490 0.350 0.350 0.350
v 2.1394 2.3450 0.4740 0.350 0.350 0.350
v 2.2476 2.2781 0.2990 0.350 0.350 0.350
v 2.0312 2.2781 0.2990 0.350 0.350 0.350
v 1.9644 2.1031 0.1909 0.350 0.350 0.350
v 1.8562 2.1700 0.3659 0.350 0.350 0.350
v 1.7894 1.9950 0.4740 0.350 0.350 0.350
v 2.3144 2.1031 0.7572 0.350 0.350 0.350
v 2.4226 2.1700 0.5822 0.350 0.350 0.350
v 1.9644 1.8868 0.7572 0.350 0.350 0.350
v 2.1394 1.9950 0.8240 0.350 0.350 0.350
v 1.8562 1.8200 0.3659 0.350 0.350 0.350
v 1.8562 1.8200 0.5822 0.350 0.350 0.350
v 2.1394 1.9950 0.1240 0.350 0.350 0.350
v 1.9644 1.8868 0.1909 0.350 0.350 0.350
v 2.4226 2.1700 0.3659 0.350 0.350 0.350
v 2.3144 2.1031 0.1909 0.350 0.350 0.350
v 2.4226 1.8200 0.5822 0.350 0.350 0.350
v 2.3144 1.8868 0.7572 0.350 0.350 0.350
v 2.2476 1.7118 0.6490 0.350 0.350 0.350
v 2.0312 1.7118 0.6490 0.350 0.350 0.350
v 2.1394 1.6450 0.4740 0.350 0.350 0.350
v 2.0312 1.7118 0.2990 0.350 0.350 0.350
v 2.2476 1.7118 0.2990 0.350 0.350 0.350
v 2.3144 1.8868 0.1909 0.350 0.350 0.350
v 2.4226 1.8200 0.3659 0.350 0.350 0.350
v 2.4894 1.9950 0.4740 0.350 0.350 0.350
v 0.6911 1.4885 0.2088 0.350 0.350 0.350
v 1.0591 1.4885 0.2088 0.350 0.350 0.350
v 0.6911 0.8930 0.2088 0.350 0.350 0.350
v 1.0591 0.8930 0.2088 0.350 0.350 0.350
v 0.8751 1.0068 0.5065 0.350 0.350 0.350
v 0.8751 1.3748 0.5065 0.350 0.350 0.350
v 0.8751 1.0068 -0.0889 0.350 0.350 0.350
v 0.8751 1.3748 -0.0889 0.350 0.350 0.350
v 1.1728 1.1908 0.0248 0.350 0.350 0.350
v 1.1728 1.1908 0.3928 0.350 0.350 0.350
v 0.5773 1.1908 0.0248 0.350 0.350 0.350
v 0.5773 1.1908 0.3928 0.350 0.350 0.350
v 0.5919 1.3658 0.3169 0.350 0.350 0.350
v 0.7001 1.2989 0.4919 0.350 0.350 0.350
v 0.7669 1.4739 0.3838 0.350 0.350 0.350
v 0.9832 1.4739 0.3838 0.350 0.350 0.350
v 0.8751 1.5408 0.2088 0.350 0.350 0.350
v 0.9832 1.4739 0.0338 0.350 0.350 0.350
v 0.7669 1.4739 0.0338 0.350 0.350 0.350
v 0.7001 1.2989 -0.0744 0.350 0.350 0.350
v 0.5919 1.3658 0.1006 0.350 0.350 0.350
v 0.5251 1.1908 0.2088 0.350 0.350 0.350
v 1.0501 1.2989 0.4919 0.350 0.350 0.350
v 1.1582 1.3658 0.3169 0.350 0.350 0.350
v 0.7001 1.0826 0.4919 0.350 0.350 0.350
v 0.8751 1.1908 0.5588 0.350 0.350 0.350
v 0.5919 1.0158 0.1006 0.350 0.350 0.350
v 0.5919 1.0158 0.3169 0.350 0.350 0.350
v 0.8751 1.1908 -0.1412 0.350 0.350 0.350
v 0.7001 1.0826 -0.0744 0.350 0.350 0.350
v 1.1582 1.3658 0.1006 0.350 0.350 0.350
v 1.0501 1.2989 -0.0744 0.350 0.350 0.350
v 1.1582 1.0158 0.3169 0.350 0.350 0.350
v 1.0501 1.0826 0.4919 0.350 0.350 0.350
v 0.9832 0.9076 0.3838 0.350 0.350 0.350
v 0.7669 0.9076 0.3838 0.350 0.350 0.350
v 0.8751 0.8408 0.2088 0.350 0.350 0.350
v 0.7669 0.9076 0.0338 0.350 0.350 0.350
v 0.9832 0.9076 0.0338 0.350 0.350 0.350
v 1.0501 1.0826 -0.0744 0.350 0.350 0.350
v 1.1582 1.0158 0.1006 0.350 0.350 0.350
v 1.2251 1.1908 0.2088 0.350 0.350 0.350
v 0.4123 0.3346 0.6950 0.900 0.150 0.150
v 0.7803 0.3346 0.6950 0.900 0.150 0.150
v 0.4123 -0.2609 0.6950 0.900 0.150 0.150
v 0.7803 -0.2609 0.6950 0.900 0.150 0.150
v 0.5963 -0.1472 0.9927 0.900 0.150 0.150
v 0.5963 0.2208 0.9927 0.900 0.150 0.150
v 0.5963 -0.1472 0.3973 0.900 0.150 0.150
v 0.5963 0.2208 0.3973 0.900 0.150 0.150
v 0.8940 0.0368 0.5110 0.900 0.150 0.150
v 0.8940 0.0368 0.8790 0.900 0.150 0.150
v 0.2985 0.0368 0.5110 0.900 0.150 0.150
v 0.2985 0.0368 0.8790 0.900 0.150 0.150
v 0.3131 0.2118 0.8031 0.900 0.150 0.150
v 0.4213 0.1450 0.9781 0.900 0.150 0.150
v 0.4881 0.3200 0.8700 0.900 0.150 0.150
v 0.7044 0.3200 0.8700 0.900 0.150 0.150
v 0.5963 0.3868 0.6950 0.900 0.150 0.150
v 0.7044 0.3200 0.5200 0.900 0.150 0.150
v 0.4881 0.3200 0.5200 0.900 0.150 0.150
v 0.4213 0.1450 0.4118 0.900 0.150 0.150
v 0.3131 0.2118 0.5868 0.900 0.150 0.150
v 0.2463 0.0368 0.6950 0.900 0.150 0.150
v 0.7713 0.1450 0.9781 0.900 0.150 0.150
v 0.8794 0.2118 0.8031 0.900 0.150 0.150
v 0.4213 -0.0713 0.9781 0.900 0.150 0.150
v 0.5963 0.0368 1.0450 0.900 0.150 0.150
v 0.3131 -0.1382 0.5868 0.900 0.150 0.150
v 0.3131 -0.1382 0.8031 0.900 0.150 0.150
v 0.5963 0.0368 0.3450 0.900 0.150 0.150
v 0.4213 -0.0713 0.4118 0.900 0.150 0.150
v 0.8794 0.2118 0.5868 0.900 0.150 0.150
v 0.7713 0.1450 0.4118 0.900 0.150 0.150
v 0.8794 -0.1382 0.8031 0.900 0.150 0.150
v 0.7713 -0.0713 0.9781 0.900 0.150 0.150
v 0.7044 -0.2463 0.8700 0.900 0.150 0.150
v 0.4881 -0.2463 0.8700 0.900 0.150 0.150
v 0.5963 -0.3132 0.6950 0.900 0.150 0.150
v 0.4881 -0.2463 0.5200 0.900 0.150 0.150
v 0.7044 -0.2463 0.5200 0.900 0.150 0.150
v 0.7713 -0.0713 0.4118 0.900 0.150 0.150
v 0.8794 -0.1382 0.5868 0.900 0.150 0.150
v 0.9463 0.0368 0.6950 0.900 0.150 0.150
v 1.7929 2.7877 1.8836 0.350 0.350 0.350
v 2.1609 2.7877 1.8836 0.350 0.350 0.350
v 1.7929 2.1923 1.8836 0.350 0.350 0.350
v 2.1609 2.1923 1.8836 0.350 0.350 0.350
v 1.9769 2.3060 2.1813 0.350 0.350 0.350
v 1.9769 2.6740 2.1813 0.350 0.350 0.350
v 1.9769 2.3060 1.5859 0.350 0.350 0.350
v 1.9769 2.6740 1.5859 0.350 0.350 0.350
v 2.2746 2.4900 1.6996 0.350 0.350 0.350
v 2.2746 2.4900 2.0676 0.350 0.350 0.350
v 1.6792 2.4900 1.6996 0.350 0.350 0.350
v 1.6792 2.4900 2.0676 0.350 0.350 0.350
v 1.6937 2.6650 1.9917 0.350 0.350 0.350
v 1.8019 2.5981 2.1667 0.350 0.350 0.350
v 1.8687 2.7731 2.0586 0.350 0.350 0.350
v 2.0851 2.7731 2.0586 0.350 0.350 0.350
v 1.9769 2.8400 1.8836 0.350 0.350 0.350
v 2.0851 2.7731 1.7086 0.350 0.350 0.350
v 1.8687 2.7731 1.7086 0.350 0.350 0.350
v 1.8019 2.5981 1.6004 0.350 0.350 0.350
v 1.6937 2.6650 1.7754 0.350 0.350 0.350
v 1.6269 2.4900 1.8836 0.350 0.350 0.350
v 2.1519 2.5981 2.1667 0.350 0.350 0.350
v 2.2601 2.6650 1.9917 0.350 0.350 0.350
v 1.8019 2.3818 2.1667 0.350 0.350 0.350
v 1.9769 2.4900 2.2336 0.350 0.350 0.350
v 1.6937 2.3150 1.7754 0.350 0.350 0.350
v 1.6937 2.3150 1.9917 0.350 0.350 0.350
v 1.9769 2.4900 1.5336 0.350 0.350 0.350
v 1.8019 2.3818 1.6004 0.350 0.350 0.350
v 2.2601 2.6650 1.7754 0.350 0.350 0.350
v 2.1519 2.5981 1.6004 0.350 0.350 0.350
v 2.2601 2.3150 1.9917 0.350 0.350 0.350
v 2.1519 2.3818 2.1667 0.350 0.350 0.350
v 2.0851 2.2068 2.0586 0.350 0.350 0.350
v 1.8687 2.2068 2.0586 0.350 0.350 0.350
v 1.9769 2.1400 1.8836 0.350 0.350 0.350
v 1.8687 2.2068 1.7086 0.350 0.350 0.350
v 2.0851 2.2068 1.7086 0.350 0.350 0.350
v 2.1519 2.3818 1.6004 0.350 0.350 0.350
v 2.2601 2.3150 1.7754 0.350 0.350 0.350
v 2.3269 2.4900 1.8836 0.350 0.350 0.350
v 3.4246 1.2880 0.2778 0.150 0.350 0.900
v 2.7820 1.6463 0.3011 0.150 0.350 0.900
v 3.3729 1.1928 0.3156 0.150 0.350 0.900
v 2.7303 1.5511 0.3389 0.150 0.350 0.900
v 3.3514 1.1476 0.4190 0.150 0.350 0.900
v 2.7088 1.5060 0.4423 0.150 0.350 0.900
v 3.3729 1.1790 0.5273 0.150 0.350 0.900
v 2.7303 1.5373 0.5506 0.150 0.350 0.900
v 3.4246 1.2686 0.5772 0.150 0.350 0.900
v 2.7820 1.6269 0.6004 0.150 0.350 0.900
v 3.4764 1.3638 0.5393 0.150 0.350 0.900
v 2.8337 1.7221 0.5626 0.150 0.350 0.900
v 3.4978 1.4089 0.4360 0.150 0.350 0.900
v 2.8552 1.7673 0.4592 0.150 0.350 0.900
v 3.4764 1.3776 0.3276 0.150 0.350 0.900
v 2.8337 1.7359 0.3509 0.150 0.350 0.900
v 2.7820 1.6463 0.3011 0.350 0.350 0.350
v 2.1394 2.0047 0.3243 0.350 0.350 0.350
v 2.7303 1.5511 0.3389 0.350 0.350 0.350
v 2.0877 1.9094 0.3622 0.350 0.350 0.350
v 2.7088 1.5060 0.4423 0.350 0.350 0.350
v 2.0662 1.8643 0.4655 0.350 0.350 0.350
v 2.7303 1.5373 0.5506 0.350 0.350 0.350
v 2.0877 1.8957 0.5739 0.350 0.350 0.350
v 2.7820 1.6269 0.6004 0.350 0.350 0.350
v 2.1394 1.9852 0.6237 0.350 0.350 0.350
v 2.8337 1.7221 0.5626 0.350 0.350 0.350
v 2.1911 2.0805 0.5859 0.350 0.350 0.350
v 2.8552 1.7673 0.4592 0.350 0.350 0.350
v 2.2126 2.1256 0.4825 0.350 0.350 0.350
v 2.8337 1.7359 0.3509 0.350 0.350 0.350
v 2.1911 2.0942 0.3742 0.350 0.350 0.350
v 2.1394 1.9480 0.6165 0.350 0.350 0.350
v 1.5072 1.5459 0.4839 0.350 0.350 0.350
v 2.0804 2.0454 0.6024 0.350 0.350 0.350
v 1.4482 1.6433 0.4697 0.350 0.350 0.350
v 2.0559 2.1133 0.5131 0.350 0.350 0.350
v 1.4238 1.7112 0.3804 0.350 0.350 0.350
v 2.0804 2.1119 0.4009 0.350 0.350 0.350
v 1.4482 1.7098 0.2683 0.350 0.350 0.350
v 2.1394 2.0419 0.3316 0.350 0.350 0.350
v 1.5072 1.6398 0.1990 0.350 0.350 0.350
v 2.1984 1.9445 0.3457 0.350 0.350 0.350
v 1.5663 1.5424 0.2131 0.350 0.350 0.350
v 2.2229 1.8766 0.4350 0.350 0.350 0.350
v 1.5907 1.4745 0.3024 0.350 0.350 0.350
v 2.1984 1.8780 0.5472 0.350 0.350 0.350
v 1.5663 1.4759 0.4145 0.350 0.350 0.350
v 1.5072 1.5459 0.4839 0.350 0.350 0.350
v 0.8751 1.1438 0.3512 0.350 0.350 0.350
v 1.4482 1.6433 0.4697 0.350 0.350 0.350
v 0.8160 1.2412 0.3371 0.350 0.350 0.350
v 1.4238 1.7112 0.3804 0.350 0.350 0.350
v 0.7916 1.3091 0.2478 0.350 0.350 0.350
v 1.4482 1.7098 0.2683 0.350 0.350 0.350
v 0.8160 1.3077 0.1357 0.350 0.350 0.350
v 1.5072 1.6398 0.1990 0.350 0.350 0.350
v 0.8751 1.2377 0.0663 0.350 0.350 0.350
v 1.5663 1.5424 0.2131 0.350 0.350 0.350
v 0.9341 1.1403 0.0805 0.350 0.350 0.350
v 1.5907 1.4745 0.3024 0.350 0.350 0.350
v 0.9585 1.0724 0.1697 0.350 0.350 0.350
v 1.5663 1.4759 0.4145 0.350 0.350 0.350
v 0.9341 1.0738 0.2819 0.350 0.350 0.350
v 2.1394 2.1365 0.4243 0.350 0.350 0.350
v 2.0581 2.3840 1.1291 0.350 0.350 0.350
v 2.0340 2.0912 0.4281 0.350 0.350 0.350
v 1.9527 2.3387 1.1328 0.350 0.350 0.350
v 1.9903 1.9896 0.4587 0.350 0.350 0.350
v 1.9090 2.2371 1.1635 0.350 0.350 0.350
v 2.0340 1.8911 0.4983 0.350 0.350 0.350
v 1.9527 2.1386 1.2031 0.350 0.350 0.350
v 2.1394 1.8534 0.5237 0.350 0.350 0.350
v 2.0581 2.1009 1.2285 0.350 0.350 0.350
v 2.2448 1.8987 0.5200 0.350 0.350 0.350
v 2.1636 2.1462 1.2248 0.350 0.350 0.350
v 2.2885 2.0003 0.4893 0.350 0.350 0.350
v 2.2073 2.2478 1.1941 0.350 0.350 0.350
v 2.2448 2.0988 0.4497 0.350 0.350 0.350
v 2.1636 2.3463 1.1545 0.350 0.350 0.350
v 2.0581 2.3840 1.1291 0.350 0.350 0.350
v 1.9769 2.6315 1.8339 0.350 0.350 0.350
v 1.9527 2.3387 1.1328 0.350 0.350 0.350
v 1.8715 2.5863 1.8376 0.350 0.350 0.350
v 1.9090 2.2371 1.1635 0.350 0.350 0.350
v 1.8278 2.4846 1.8683 0.350 0.350 0.350
v 1.9527 2.1386 1.2031 0.350 0.350 0.350
v 1.8715 2.3861 1.9079 0.350 0.350 0.350
v 2.0581 2.1009 1.2285 0.350 0.350 0.350
v 1.9769 2.3485 1.9333 0.350 0.350 0.350
v 2.1636 2.1462 1.2248 0.350 0.350 0.350
v 2.0823 2.3937 1.9295 0.350 0.350 0.350
v 2.2073 2.2478 1.1941 0.350 0.350 0.350
v 2.1260 2.4954 1.8989 0.350 0.350 0.350
v 2.1636 2.3463 1.1545 0.350 0.350 0.350
v 2.0823 2.5939 1.8593 0.350 0.350 0.350
v 0.8751 1.2490 0.3470 0.350 0.350 0.350
v 0.7357 0.6720 0.5901 0.350 0.350 0.350
v 0.7715 1.2532 0.2976 0.350 0.350 0.350
v 0.6321 0.6762 0.5407 0.350 0.350 0.350
v 0.7287 1.2208 0.1961 0.350 0.350 0.350
v 0.5893 0.6438 0.4392 0.350 0.350 0.350
v 0.7715 1.1708 0.1021 0.350 0.350 0.350
v 0.6321 0.5939 0.3452 0.350 0.350 0.350
v 0.8751 1.1325 0.0706 0.350 0.350 0.350
v 0.7357 0.5556 0.3137 0.350 0.350 0.350
v 0.9786 1.1283 0.1200 0.350 0.350 0.350
v 0.8392 0.5514 0.3631 0.350 0.350 0.350
v 1.0215 1.1607 0.2214 0.350 0.350 0.350
v 0.8821 0.5838 0.4645 0.350 0.350 0.350
v 0.9786 1.2107 0.3155 0.350 0.350 0.350
v 0.8392 0.6337 0.5586 0.350 0.350 0.350
v 0.7357 0.6720 0.5901 0.900 0.150 0.150
v 0.5963 0.0951 0.8332 0.900 0.150 0.150
v 0.6321 0.6762 0.5407 0.900 0.150 0.150
v 0.4927 0.0993 0.7838 0.900 0.150 0.150
v 0.5893 0.6438 0.4392 0.900 0.150 0.150
v 0.4498 0.0669 0.6823 0.900 0.150 0.150
v 0.6321 0.5939 0.3452 0.900 0.150 0.150
v 0.4927 0.0169 0.5883 0.900 0.150 0.150
v 0.7357 0.5556 0.3137 0.900 0.150 0.150
v 0.5963 -0.0214 0.5568 0.900 0.150 0.150
v 0.8392 0.5514 0.3631 0.900 0.150 0.150
v 0.6998 -0.0256 0.6062 0.900 0.150 0.150
v 0.8821 0.5838 0.4645 0.900 0.150 0.150
v 0.7427 0.0068 0.7076 0.900 0.150 0.150
v 0.8392 0.6337 0.5586 0.900 0.150 0.150
v 0.6998 0.0568 0.8017 0.900 0.150 0.150
vn -0.5257 0.8507 0.0000
vn 0.5257 0.8507 0.0000
vn -0.5257 -0.8507 0.0000
vn 0.5257 -0.8507 0.0000
vn 0.0000 -0.5257 0.8507
vn 0.0000 0.5257 0.8507
vn 0.0000 -0.5257 -0.8507
vn 0.0000 0.5257 -0.8507
vn 0.8507 0.0000 -0.5257
vn 0.8507 0.0000 0.5257
vn -0.8507 0.0000 -0.5257
vn -0.8507 0.0000 0.5257
vn -0.8090 0.5000 0.3090
vn -0.5000 0.3090 0.8090
vn -0.3090 0.8090 0.5000
vn 0.3090 0.8090 0.5000
vn 0.0000 1.0000 0.0000
vn 0.3090 0.8090 -0.5000
vn -0.3090 0.8090 -0.5000
vn -0.5000 0.3090 -0.8090
vn -0.8090 0.5000 -0.3090
vn -1.0000 0.0000 0.0000
vn 0.5000 0.3090 0.8090
vn 0.8090 0.5000 0.3090
vn -0.5000 -0.3090 0.8090
vn 0.0000 0.0000 1.0000
vn -0.8090 -0.5000 -0.3090
vn -0.8090 -0.5000 0.3090
vn 0.0000 0.0000 -1.0000
vn -0.5000 -0.3090 -0.8090
vn 0.8090 0.5000 -0.3090
vn 0.5000 0.3090 -0.8090
vn 0.8090 -0.5000 0.3090
vn 0.5000 -0.3090 0.8090
vn 0.3090 -0.8090 0.5000
vn -0.3090 -0.8090 0.5000
vn 0.0000 -1.0000 0.0000
vn -0.3090 -0.8090 -0.5000
vn 0.3090 -0.8090 -0.5000
vn 0.5000 -0.3090 -0.8090
vn 0.8090 -0.5000 -0.3090
vn 1.0000 0.0000 0.0000
vn -0.5257 0.8507 0.0000
vn 0.5257 0.8507 0.0000
vn -0.5257 -0.8507 0.0000
vn 0.5257 -0.8507 0.0000
vn 0.0000 -0.5257 0.8507
vn 0.0000 0.5257 0.8507
vn 0.0000 -0.5257 -0.8507
vn 0.0000 0.5257 -0.8507
vn 0.8507 0.0000 -0.5257
vn 0.8507 0.0000 0.5257
vn -0.8507 0.0000 -0.5257
vn -0.8507 0.0000 0.5257
vn -0.8090 0.5000 0.3090
vn -0.5000 0.3090 0.8090
vn -0.3090 0.8090 0.5000
vn 0.3090 0.8090 0.5000
vn 0.0000 1.0000 0.0000
vn 0.3090 0.8090 -0.5000
vn -0.3090 0.8090 -0.5000
vn -0.5000 0.3090 -0.8090
vn -0.8090 0.5000 -0.3090
vn -1.0000 0.0000 0.0000
vn 0.5000 0.3090 0.8090
vn 0.8090 0.5000 0.3090
vn -0.5000 -0.3090 0.8090
vn 0.0000 0.0000 1.0000
vn -0.8090 -0.5000 -0.3090
vn -0.8090 -0.5000 0.3090
vn 0.0000 0.0000 -1.0000
vn -0.5000 -0.3090 -0.8090
vn 0.8090 0.5000 -0.3090
vn 0.5000 0.3090 -0.8090
vn 0.8090 -0.5000 0.3090
vn 0.5000 -0.3090 0.8090
vn 0.3090 -0.8090 0.5000
vn -0.3090 -0.8090 0.5000
vn 0.0000 -1.0000 0.0000
vn -0.3090 -0.8090 -0.5000
vn 0.3090 -0.8090 -0.5000
vn 0.5000 -0.3090 -0.8090
vn 0.8090 -0.5000 -0.3090
vn 1.0000 0.0000 0.0000
vn -0.5257 0.8507 0.0000
vn 0.5257 0.8507 0.0000
vn -0.5257 -0.8507 0.0000
vn 0.5257 -0.8507 0.0000
vn 0.0000 -0.5257 0.8507
vn 0.0000 0.5257 0.8507
vn 0.0000 -0.5257 -0.8507
vn 0.0000 0.5257 -0.8507
vn 0.8507 0.0000 -0.5257
vn 0.8507 0.0000 0.5257
vn -0.8507 0.0000 -0.5257
vn -0.8507 0.0000 0.5257
vn -0.8090 0.5000 0.3090
vn -0.5000 0.3090 0.8090
vn -0.3090 0.8090 0.5000
vn 0.3090 0.8090 0.5000
vn 0.0000 1.0000 0.0000
vn 0.3090 0.8090 -0.5000
vn -0.3090 0.8090 -0.5000
vn -0.5000 0.3090 -0.8090
vn -0.8090 0.5000 -0.3090
vn -1.0000 0.0000 0.0000
vn 0.5000 0.3090 0.8090
vn 0.8090 0.5000 0.3090
vn -0.5000 -0.3090 0.8090
vn 0.0000 0.0000 1.0000
vn -0.8090 -0.5000 -0.3090
vn -0.8090 -0.5000 0.3090
vn 0.0000 0.0000 -1.0000
vn -0.5000 -0.3090 -0.8090
vn 0.8090 0.5000 -0.3090
vn 0.5000 0.3090 -0.8090
vn 0.8090 -0.5000 0.3090
vn 0.5000 -0.3090 0.8090
vn 0.3090 -0.8090 0.5000
vn -0.3090 -0.8090 0.5000
vn 0.0000 -1.0000 0.0000
vn -0.3090 -0.8090 -0.5000
vn 0.3090 -0.8090 -0.5000
vn 0.5000 -0.3090 -0.8090
vn 0.8090 -0.5000 -0.3090
vn 1.0000 0.0000 0.0000
vn -0.5257 0.8507 0.0000
vn 0.5257 0.8507 0.0000
vn -0.5257 -0.8507 0.0000
vn 0.5257 -0.8507 0.0000
vn 0.0000 -0.5257 0.8507
vn 0.0000 0.5257 0.8507
vn 0.0000 -0.5257 -0.8507
vn 0.0000 0.5257 -0.8507
vn 0.8507 0.0000 -0.5257
vn 0.8507 0.0000 0.5257
vn -0.8507 0.0000 -0.5257
vn -0.8507 0.0000 0.5257
vn -0.8090 0.5000 0.3090
vn -0.5000 0.3090 0.8090
vn -0.3090 0.8090 0.5000
vn 0.3090 0.8090 0.5000
vn 0.0000 1.0000 0.0000
vn 0.3090 0.8090 -0.5000
vn -0.3090 0.8090 -0.5000
vn -0.5000 0.3090 -0.8090
vn -0.8090 0.5000 -0.3090
vn -1.0000 0.0000 0.0000
vn 0.5000 0.3090 0.8090
vn 0.8090 0.5000 0.3090
vn -0.5000 -0.3090 0.8090
vn 0.0000 0.0000 1.0000
vn -0.8090 -0.5000 -0.3090
vn -0.8090 -0.5000 0.3090
vn 0.0000 0.0000 -1.0000
vn -0.5000 -0.3090 -0.8090
vn 0.8090 0.5000 -0.3090
vn 0.5000 0.3090 -0.8090
vn 0.8090 -0.5000 0.3090
vn 0.5000 -0.3090 0.8090
vn 0.3090 -0.8090 0.5000
vn -0.3090 -0.8090 0.5000
vn 0.0000 -1.0000 0.0000
vn -0.3090 -0.8090 -0.5000
vn 0.3090 -0.8090 -0.5000
vn 0.5000 -0.3090 -0.8090
vn 0.8090 -0.5000 -0.3090
vn 1.0000 0.0000 0.0000
vn -0.5257 0.8507 0.0000
vn 0.5257 0.8507 0.0000
vn -0.5257 -0.8507 0.0000
vn 0.5257 -0.8507 0.0000
vn 0.0000 -0.5257 0.8507
vn 0.0000 0.5257 0.8507
vn 0.0000 -0.5257 -0.8507
vn 0.0000 0.5257 -0.8507
vn 0.8507 0.0000 -0.5257
vn 0.8507 0.0000 0.5257
vn -0.8507 0.0000 -0.5257
vn -0.8507 0.0000 0.5257
vn -0.8090 0.5000 0.3090
vn -0.5000 0.3090 0.8090
vn -0.3090 0.8090 0.5000
vn 0.3090 0.8090 0.5000
vn 0.0000 1.0000 0.0000
vn 0.3090 0.8090 -0.5000
vn -0.3090 0.8090 -0.5000
vn -0.5000 0.3090 -0.8090
vn -0.8090 0.5000 -0.3090
vn -1.0000 0.0000 0.0000
vn 0.5000 0.3090 0.8090
vn 0.8090 0.5000 0.3090
vn -0.5000 -0.3090 0.8090
vn 0.0000 0.0000 1.0000
vn -0.8090 -0.5000 -0.3090
vn -0.8090 -0.5000 0.3090
vn 0.0000 0.0000 -1.0000
vn -0.5000 -0.3090 -0.8090
vn 0.8090 0.5000 -0.3090
vn 0.5000 0.3090 -0.8090
vn 0.8090 -0.5000 0.3090
vn 0.5000 -0.3090 0.8090
vn 0.3090 -0.8090 0.5000
vn -0.3090 -0.8090 0.5000
vn 0.0000 -1.0000 0.0000
vn -0.3090 -0.8090 -0.5000
vn 0.3090 -0.8090 -0.5000
vn 0.5000 -0.3090 -0.8090
vn 0.8090 -0.5000 -0.3090
vn 1.0000 0.0000 0.0000
vn 0.0000 0.0648 -0.9979
vn 0.0000 0.0648 -0.9979
vn -0.3449 -0.5701 -0.7456
vn -0.3449 -0.5701 -0.7456
vn -0.4878 -0.8711 -0.0566
vn -0.4878 -0.8711 -0.0566
vn -0.3449 -0.6618 0.6656
vn -0.3449 -0.6618 0.6656
vn 0.0000 -0.0648 0.9979
vn 0.0000 -0.0648 0.9979
vn 0.3449 0.5701 0.7456
vn 0.3449 0.5701 0.7456
vn 0.4878 0.8711 0.0566
vn 0.4878 0.8711 0.0566
vn 0.3449 0.6618 -0.6656
vn 0.3449 0.6618 -0.6656
vn 0.0000 0.0648 -0.9979
vn 0.0000 0.0648 -0.9979
vn -0.3449 -0.5701 -0.7456
vn -0.3449 -0.5701 -0.7456
vn -0.4878 -0.8711 -0.0566
vn -0.4878 -0.8711 -0.0566
vn -0.3449 -0.6618 0.6656
vn -0.3449 -0.6618 0.6656
vn 0.0000 -0.0648 0.9979
vn 0.0000 -0.0648 0.9979
vn 0.3449 0.5701 0.7456
vn 0.3449 0.5701 0.7456
vn 0.4878 0.8711 0.0566
vn 0.4878 0.8711 0.0566
vn 0.3449 0.6618 -0.6656
vn 0.3449 0.6618 -0.6656
vn 0.0000 -0.3132 0.9497
vn 0.0000 -0.3132 0.9497
vn -0.3935 0.3365 0.8555
vn -0.3935 0.3365 0.8555
vn -0.5565 0.7890 0.2602
vn -0.5565 0.7890 0.2602
vn -0.3935 0.7794 -0.4875
vn -0.3935 0.7794 -0.4875
vn 0.0000 0.3132 -0.9497
vn 0.0000 0.3132 -0.9497
vn 0.3935 -0.3365 -0.8555
vn 0.3935 -0.3365 -0.8555
vn 0.5565 -0.7890 -0.2602
vn 0.5565 -0.7890 -0.2602
vn 0.3935 -0.7794 0.4875
vn 0.3935 -0.7794 0.4875
vn 0.0000 -0.3132 0.9497
vn 0.0000 -0.3132 0.9497
vn -0.3935 0.3365 0.8555
vn -0.3935 0.3365 0.8555
vn -0.5565 0.7890 0.2602
vn -0.5565 0.7890 0.2602
vn -0.3935 0.7794 -0.4875
vn -0.3935 0.7794 -0.4875
vn 0.0000 0.3132 -0.9497
vn 0.0000 0.3132 -0.9497
vn 0.3935 -0.3365 -0.8555
vn 0.3935 -0.3365 -0.8555
vn 0.5565 -0.7890 -0.2602
vn 0.5565 -0.7890 -0.2602
vn 0.3935 -0.7794 0.4875
vn 0.3935 -0.7794 0.4875
vn 0.0000 0.9435 -0.3314
vn 0.0000 0.9435 -0.3314
vn -0.7030 0.6418 -0.3064
vn -0.7030 0.6418 -0.3064
vn -0.9941 -0.0358 -0.1020
vn -0.9941 -0.0358 -0.1020
vn -0.7030 -0.6925 0.1622
vn -0.7030 -0.6925 0.1622
vn 0.0000 -0.9435 0.3314
vn 0.0000 -0.9435 0.3314
vn 0.7030 -0.6418 0.3064
vn 0.7030 -0.6418 0.3064
vn 0.9941 0.0358 0.1020
vn 0.9941 0.0358 0.1020
vn 0.7030 0.6925 -0.1622
vn 0.7030 0.6925 -0.1622
vn 0.0000 0.9435 -0.3314
vn 0.0000 0.9435 -0.3314
vn -0.7030 0.6418 -0.3064
vn -0.7030 0.6418 -0.3064
vn -0.9941 -0.0358 -0.1020
vn -0.9941 -0.0358 -0.1020
vn -0.7030 -0.6925 0.1622
vn -0.7030 -0.6925 0.1622
vn 0.0000 -0.9435 0.3314
vn 0.0000 -0.9435 0.3314
vn 0.7030 -0.6418 0.3064
vn 0.7030 -0.6418 0.3064
vn 0.9941 0.0358 0.1020
vn 0.9941 0.0358 0.1020
vn 0.7030 0.6925 -0.1622
vn 0.7030 0.6925 -0.1622
vn -0.0000 0.3883 0.9215
vn -0.0000 0.3883 0.9215
vn -0.6902 0.4162 0.5920
vn -0.6902 0.4162 0.5920
vn -0.9761 0.2003 -0.0844
vn -0.9761 0.2003 -0.0844
vn -0.6902 -0.1329 -0.7113
vn -0.6902 -0.1329 -0.7113
vn 0.0000 -0.3883 -0.9215
vn 0.0000 -0.3883 -0.9215
vn 0.6902 -0.4162 -0.5920
vn 0.6902 -0.4162 -0.5920
vn 0.9761 -0.2003 0.0844
vn 0.9761 -0.2003 0.0844
vn 0.6902 0.1329 0.7113
vn 0.6902 0.1329 0.7113
vn -0.0000 0.3883 0.9215
vn -0.0000 0.3883 0.9215
vn -0.6902 0.4162 0.5920
vn -0.6902 0.4162 0.5920
vn -0.9761 0.2003 -0.0844
vn -0.9761 0.2003 -0.0844
vn -0.6902 -0.1329 -0.7113
vn -0.6902 -0.1329 -0.7113
vn 0.0000 -0.3883 -0.9215
vn 0.0000 -0.3883 -0.9215
vn 0.6902 -0.4162 -0.5920
vn 0.6902 -0.4162 -0.5920
vn 0.9761 -0.2003 0.0844
vn 0.9761 -0.2003 0.0844
vn 0.6902 0.1329 0.7113
vn 0.6902 0.1329 0.7113
f 1//1 13//13 15//15
f 12//12 14//14 13//13
f 6//6 15//15 14//14
f 13//13 14//14 15//15
f 1//1 15//15 17//17
f 6//6 16//16 15//15
f 2//2 17//17 16//16
f 15//15 16//16 17//17
f 1//1 17//17 19//19
f 2//2 18//18 17//17
f 8//8 19//19 18//18
f 17//17 18//18 19//19
f 1//1 19//19 21//21
f 8//8 20//20 19//19
f 11//11 21//21 20//20
f 19//19 20//20 21//21
f 1//1 21//21 13//13
f 11//11 22//22 21//21
f 12//12 13//13 22//22
f 21//21 22//22 13//13
f 2//2 16//16 24//24
f 6//6 23//23 16//16
f 10//10 24//24 23//23
f 16//16 23//23 24//24
f 6//6 14//14 26//26
f 12//12 25//25 14//14
f 5//5 26//26 25//25
f 14//14 25//25 26//26
f 12//12 22//22 28//28
f 11//11 27//27 22//22
f 3//3 28//28 27//27
f 22//22 27//27 28//28
f 11//11 20//20 30//30
f 8//8 29//29 20//20
f 7//7 30//30 29//29
f 20//20 29//29 30//30
f 8//8 18//18 32//32
f 2//2 31//31 18//18
f 9//9 32//32 31//31
f 18//18 31//31 32//32
f 4//4 33//33 35//35
f 10//10 34//34 33//33
f 5//5 35//35 34//34
f 33//33 34//34 35//35
f 4//4 35//35 37//37
f 5//5 36//36 35//35
f 3//3 37//37 36//36
f 35//35 36//36 37//37
f 4//4 37//37 39//39
f 3//3 38//38 37//37
f 7//7 39//39 38//38
f 37//37 38//38 39//39
f 4//4 39//39 41//41
f 7//7 40//40 39//39
f 9//9 41//41 40//40
f 39//39 40//40 41//41
f 4//4 41//41 33//33
f 9//9 42//42 41//41
f 10//10 33//33 42//42
f 41//41 42//42 33//33
f 5//5 34//34 26//26
f 10//10 23//23 34//34
f 6//6 26//26 23//23
f 34//34 23//23 26//26
f 3//3 36//36 28//28
f 5//5 25//25 36//36
f 12//12 28//28 25//25
f 36//36 25//25 28//28
f 7//7 38//38 30//30
f 3//3 27//27 38//38
f 11//11 30//30 27//27
f 38//38 27//27 30//30
f 9//9 40//40 32//32
f 7//7 29//29 40//40
f 8//8 32//32 29//29
f 40//40 29//29 32//32
f 10//10 42//42 24//24
f 9//9 31//31 42//42
f 2//2 24//24 31//31
f 42//42 31//31 24//24
f 43//43 55//55 57//57
f 54//54 56//56 55//55
f 48//48 57//57 56//56
f 55//55 56//56 57//57
f 43//43 57//57 59//59
f 48//48 58//58 57//57
f 44//44 59//59 58//58
f 57//57 58//58 59//59
f 43//43 59//59 61//61
f 44//44 60//60 59//59
f 50//50 61//61 60//60
f 59//59 60//60 61//61
f 43//43 61//61 63//63
f 50//50 62//62 61//61
f 53//53 63//63 62//62
f 61//61 62//62 63//63
f 43//43 63//63 55//55
f 53//53 64//64 63//63
f 54//54 55//55 64//64
f 63//63 64//64 55//55
f 44//44 58//58 66//66
f 48//48 65//65 58//58
f 52//52 66//66 65//65
f 58//58 65//65 66//66
f 48//48 56//56 68//68
f 54//54 67//67 56//56
f 47//47 68//68 67//67
f 56//56 67//67 68//68
f 54//54 64//64 70//70
f 53//53 69//69 64//64
f 45//45 70//70 69//69
f 64//64 69//69 70//70
f 53//53 62//62 72//72
f 50//50 71//71 62//62
f 49//49 72//72 71//71
f 62//62 71//71 72//72
f 50//50 60//60 74//74
f 44//44 73//73 60//60
f 51//51 74//74 73//73
f 60//60 73//73 74//74
f 46//46 75//75 77//77
f 52//52 76//76 75//75
f 47//47 77//77 76//76
f 75//75 76//76 77//77
f 46//46 77//77 79//79
f 47//47 78//78 77//77
f 45//45 79//79 78//78
f 77//77 78//78 79//79
f 46//46 79//79 81//81
f 45//45 80//80 79//79
f 49//49 81//81 80//80
f 79//79 80//80 81//81
f 46//46 81//81 83//83
f 49//49 82//82 81//81
f 51//51 83//83 82//82
f 81//81 82//82 83//83
f 46//46 83//83 75//75
f 51//51 84//84 83//83
f 52//52 75//75 84//84
f 83//83 84//84 75//75
f 47//47 76//76 68//68
f 52//52 65//65 76//76
f 48//48 68//68 65//65
f 76//76 65//65 68//68
f 45//45 78//78 70//70
f 47//47 67//67 78//78
f 54//54 70//70 67//67
f 78//78 67//67 70//70
f 49//49 80//80 72//72
f 45//45 69//69 80//80
f 53//53 72//72 69//69
f 80//80 69//69 72//72
f 51//51 82//82 74//74
f 49//49 71//71 82//82
f 50//50 74//74 71//71
f 82//82 71//71 74//74
f 52//52 84//84 66//66
f 51//51 73//73 84//84
f 44//44 66//66 73//73
f 84//84 73//73 66//66
f 85//85 97//97 99//99
f 96//96 98//98 97//97
f 90//90 99//99 98//98
f 97//97 98//98 99//99
f 85//85 99//99 101//101
f 90//90 100//100 99//99
f 86//86 101//101 100//100
f 99//99 100//100 101//101
f 85//85 101//101 103//103
f 86//86 102//102 101//101
f 92//92 103//103 102//102
f 101//101 102//102 103//103
f 85//85 103//103 105//105
f 92//92 104//104 103//103
f 95//95 105//105 104//104
f 103//103 104//104 105//105
f 85//85 105//105 97//97
f 95//95 106//106 105//105
f 96//96 97//97 106//106
f 105//105 106//106 97//97
f 86//86 100//100 108//108
f 90//90 107//107 100//100
f 94//94 108//108 107//107
f 100//100 107//107 108//108
f 90//90 98//98 110//110
f 96//96 109//109 98//98
f 89//89 110//110 109//109
f 98//98 109//109 110//110
f 96//96 106//106 112//112
f 95//95 111//111 106//106
f 87//87 112//112 111//111
f 106//106 111//111 112//112
f 95//95 104//104 114//114
f 92//92 113//113 104//104
f 91//91 114//114 113//113
f 104//104 113//113 114//114
f 92//92 102//102 116//116
f 86//86 115//115 102//102
f 93//93 116//116 115//115
f 102//102 115//115 116//116
f 88//88 117//117 119//119
f 94//94 118//118 117//117
f 89//89 119//119 118//118
f 117//117 118//118 119//119
f 88//88 119//119 121//121
f 89//89 120//120 119//119
f 87//87 121//121 120//120
f 119//119 120//120 121//121
f 88//88 121//121 123//123
f 87//87 122//122 121//121
f 91//91 123//123 122//122
f 121//121 122//122 123//123
f 88//88 123//123 125//125
f 91//91 124//124 123//123
f 93//93 125//125 124//124
f 123//123 124//124 125//125
f 88//88 125//125 117//117
f 93//93 126//126 125//125
f 94//94 117//117 126//126
f 125//125 126//126 117//117
f 89//89 118//118 110//110
f 94//94 107//107 118//118
f 90//90 110//110 107//107
f 118//118 107//107 110//110
f 87//87 120//120 112//112
f 89//89 109//109 120//120
f 96//96 112//112 109//109
f 120//120 109//109 112//112
f 91//91 122//122 114//114
f 87//87 111//111 122//122
f 95//95 114//114 111//111
f 122//122 111//111 114//114
f 93//93 124//124 116//116
f 91//91 113//113 124//124
f 92//92 116//116 113//113
f 124//124 113//113 116//116
f 94//94 126//126 108//108
f 93//93 115//115 126//126
f 86//86 108//108 115//115
f 126//126 115//115 108//108
f 127//127 139//139 141//141
f 138//138 140//140 139//139
f 132//132 141//141 140//140
f 139//139 140//140 141//141
f 127//127 141//141 143//143
f 132//132 142//142 141//141
f 128//128 143//143 142//142
f 141//141 142//142 143//143
f 127//127 143//143 145//145
f 128//128 144//144 143//143
f 134//134 145//145 144//144
f 143//143 144//144 145//145
f 127//127 145//145 147//147
f 134//134 146//146 145//145
f 137//137 147//147 146//146
f 145//145 146//146 147//147
f 127//127 147//147 139//139
f 137//137 148//148 147//147
f 138//138 139//139 148//148
f 147//147 148//148 139//139
f 128//128 142//142 150//150
f 132//132 149//149 142//142
f 136//136 150//150 149//149
f 142//142 149//149 150//150
f 132//132 140//140 152//152
f 138//138 151//151 140//140
f 131//131 152//152 151//151
f 140//140 151//151 152//152
f 138//138 148//148 154//154
f 137//137 153//153 148//148
f 129//129 154//154 153//153
f 148//148 153//153 154//154
f 137//137 146//146 156//156
f 134//134 155//155 146//146
f 133//133 156//156 155//155
f 146//146 155//155 156//156
f 134//134 144//144 158//158
f 128//128 157//157 144//144
f 135//135 158//158 157//157
f 144//144 157//157 158//158
f 130//130 159//159 161//161
f 136//136 160//160 159//159
f 131//131 161//161 160//160
f 159//159 160//160 161//161
f 130//130 161//161 163//163
f 131//131 162//162 161//161
f 129//129 163//163 162//162
f 161//161 162//162 163//163
f 130//130 163//163 165//165
f 129//129 164//164 163//163
f 133//133 165//165 164//164
f 163//163 164//164 165//165
f 130//130 165//165 167//167
f 133//133 166//166 165//165
f 135//135 167//167 166//166
f 165//165 166//166 167//167
f 130//130 167//167 159//159
f 135//135 168//168 167//167
f 136//136 159//159 168//168
f 167//167 168//168 159//159
f 131//131 160//160 152//152
f 136//136 149//149 160//160
f 132//132 152//152 149//149
f 160//160 149//149 152//152
f 129//129 162//162 154//154
f 131//131 151//151 162//162
f 138//138 154//154 151//151
f 162//162 151//151 154//154
f 133//133 164//164 156//156
f 129//129 153//153 164//164
f 137//137 156//156 153//153
f 164//164 153//153 156//156
f 135//135 166//166 158//158
f 133//133 155//155 166//166
f 134//134 158//158 155//155
f 166//166 155//155 158//158
f 136//136 168//168 150//150
f 135//135 157//157 168//168
f 128//128 150//150 157//157
f 168//168 157//157 150//150
f 169//169 181//181 183//183
f 180//180 182//182 181//181
f 174//174 183//183 182//182
f 181//181 182//182 183//183
f 169//169 183//183 185//185
f 174//174 184//184 183//183
f 170//170 185//185 184//184
f 183//183 184//184 185//185
f 169//169 185//185 187//187
f 170//170 186//186 185//185
f 176//176 187//187 186//186
f 185//185 186//186 187//187
f 169//169 187//187 189//189
f 176//176 188//188 187//187
f 179//179 189//189 188//188
f 187//187 188//188 189//189
f 169//169 189//189 181//181
f 179//179 190//190 189//189
f 180//180 181//181 190//190
f 189//189 190//190 181//181
f 170//170 184//184 192//192
f 174//174 191//191 184//184
f 178//178 192//192 191//191
f 184//184 191//191 192//192
f 174//174 182//182 194//194
f 180//180 193//193 182//182
f 173//173 194//194 193//193
f 182//182 193//193 194//194
f 180//180 190//190 196//196
f 179//179 195//195 190//190
f 171//171 196//196 195//195
f 190//190 195//195 196//196
f 179//179 188//188 198//198
f 176//176 197//197 188//188
f 175//175 198//198 197//197
f 188//188 197//197 198//198
f 176//176 186//186 200//200
f 170//170 199//199 186//186
f 177//177 200//200 199//199
f 186//186 199//199 200//200
f 172//172 201//201 203//203
f 178//178 202//202 201//201
f 173//173 203//203 202//202
f 201//201 202//202 203//203
f 172//172 203//203 205//205
f 173//173 204//204 203//203
f 171//171 205//205 204//204
f 203//203 204//204 205//205
f 172//172 205//205 207//207
f 171//171 206//206 205//205
f 175//175 207//207 206//206
f 205//205 206//206 207//207
f 172//172 207//207 209//209
f 175//175 208//208 207//207
f 177//177 209//209 208//208
f 207//207 208//208 209//209
f 172//172 209//209 201//201
f 177//177 210//210 209//209
f 178//178 201//201 210//210
f 209//209 210//210 201//201
f 173//173 202//202 194//194
f 178//178 191//191 202//202
f 174//174 194//194 191//191
f 202//202 191//191 194//194
f 171//171 204//204 196//196
f 173//173 193//193 204//204
f 180//180 196//196 193//193
f 204//204 193//193 196//196
f 175//175 206//206 198//198
f 171//171 195//195 206//206
f 179//179 198//198 195//195
f 206//206 195//195 198//198
f 177//177 208//208 200//200
f 175//175 197//197 208//208
f 176//176 200//200 197//197
f 208//208 197//197 200//200
f 178//178 210//210 192//192
f 177//177 199//199 210//210
f 170//170 192//192 199//199
f 210//210 199//199 192//192
f 211//211 213//213 212//212
f 212//212 213//213 214//214
f 213//213 215//215 214//214
f 214//214 215//215 216//216
f 215//215 217//217 216//216
f 216//216 217//217 218//218
f 217//217 219//219 218//218
f 218//218 219//219 220//220
f 219//219 221//221 220//220
f 220//220 221//221 222//222
f 221//221 223//223 222//222
f 222//222 223//223 224//224
f 223//223 225//225 224//224
f 224//224 225//225 226//226
f 225//225 211//211 226//226
f 226//226 211//211 212//212
f 227//227 229//229 228//228
f 228//228 229//229 230//230
f 229//229 231//231 230//230
f 230//230 231//231 232//232
f 231//231 233//233 232//232
f 232//232 233//233 234//234
f 233//233 235//235 234//234
f 234//234 235//235 236//236
f 235//235 237//237 236//236
f 236//236 237//237 238//238
f 237//237 239//239 238//238
f 238//238 239//239 240//240
f 239//239 241//241 240//240
f 240//240 241//241 242//242
f 241//241 227//227 242//242
f 242//242 227//227 228//228
f 243//243 245//245 244//244
f 244//244 245//245 246//246
f 245//245 247//247 246//246
f 246//246 247//247 248//248
f 247//247 249//249 248//248
f 248//248 249//249 250//250
f 249//249 251//251 250//250
f 250//250 251//251 252//252
f 251//251 253//253 252//252
f 252//252 253//253 254//254
f 253//253 255//255 254//254
f 254//254 255//255 256//256
f 255//255 257//257 256//256
f 256//256 257//257 258//258
f 257//257 243//243 258//258
f 258//258 243//243 244//244
f 259//259 261//261 260//260
f 260//260 261//261 262//262
f 261//261 263//263 262//262
f 262//262 263//263 264//264
f 263//263 265//265 264//264
f 264//264 265//265 266//266
f 265//265 267//267 266//266
f 266//266 267//267 268//268
f 267//267 269//269 268//268
f 268//268 269//269 270//270
f 269//269 271//271 270//270
f 270//270 271//271 272//272
f 271//271 273//273 272//272
f 272//272 273//273 274//274
f 273//273 259//259 274//274
f 274//274 259//259 260//260
f 275//275 277//277 276//276
f 276//276 277//277 278//278
f 277//277 279//279 278//278
f 278//278 279//279 280//280
f 279//279 281//281 280//280
f 280//280 281//281 282//282
f 281//281 283//283 282//282
f 282//282 283//283 284//284
f 283//283 285//285 284//284
f 284//284 285//285 286//286
f 285//285 287//287 286//286
f 286//286 287//287 288//288
f 287//287 289//289 288//288
f 288//288 289//289 290//290
f 289//289 275//275 290//290
f 290//290 275//275 276//276
f 291//291 293//293 292//292
f 292//292 293//293 294//294
f 293//293 295//295 294//294
f 294//294 295//295 296//296
f 295//295 297//297 296//296
f 296//296 297//297 298//298
f 297//297 299//299 298//298
f 298//298 299//299 300//300
f 299//299 301//301 300//300
f 300//300 301//301 302//302
f 301//301 303//303 302//302
f 302//302 303//303 304//304
f 303//303 305//305 304//304
f 304//304 305//305 306//306
f 305//305 291//291 306//306
f 306//306 291//291 292//292
f 307//307 309//309 308//308
f 308//308 309//309 310//310
f 309//309 311//311 310//310
f 310//310 311//311 312//312
f 311//311 313//313 312//312
f 312//312 313//313 314//314
f 313//313 315//315 314//314
f 314//314 315//315 316//316
f 315//315 317//317 316//316
f 316//316 317//317 318//318
f 317//317 319//319 318//318
f 318//318 319//319 320//320
f 319//319 321//321 320//320
f 320//320 321//321 322//322
f 321//321 307//307 322//322
f 322//322 307//307 308//308
f 323//323 325//325 324//324
f 324//324 325//325 326//326
f 325//325 327//327 326//326
f 326//326 327//327 328//328
f 327//327 329//329 328//328
f 328//328 329//329 330//330
f 329//329 331//331 330//330
f 330//330 331//331 332//332
f 331//331 333//333 332//332
f 332//332 333//333 334//334
f 333//333 335//335 334//334
f 334//334 335//335 336//336
f 335//335 337//337 336//336
f 336//336 337//337 338//338
f 337//337 323//323 338//338
f 338//338 323//323 324//324
